HIERARCHY
ROOT Hips
{
 OFFSET 0.000000 0.000000 0.000000
 CHANNELS 6 Xposition Yposition Zposition Yrotation Xrotation Zrotation
 JOINT Chest
 {
  OFFSET 0.000000 9.581000 -0.001100
  CHANNELS 3 Yrotation Xrotation Zrotation
  JOINT Chest2
  {
   OFFSET 0.000000 9.561100 0.002200
   CHANNELS 3 Yrotation Xrotation Zrotation
   JOINT Chest3
   {
    OFFSET 0.000000 9.521100 0.000000
    CHANNELS 3 Yrotation Xrotation Zrotation
    JOINT Chest4
    {
     OFFSET 0.000000 9.511400 0.000000
     CHANNELS 3 Yrotation Xrotation Zrotation
     JOINT Neck
     {
      OFFSET 0.000000 14.375100 0.000000
      CHANNELS 3 Yrotation Xrotation Zrotation
      JOINT Head
      {
       OFFSET 0.000000 8.901200 0.004600
       CHANNELS 3 Yrotation Xrotation Zrotation
       End Site
       {
        OFFSET 0.000000 16.962200 0.002400
       }
      }
     }
     JOINT RightCollar
     {
      OFFSET -2.920100 9.518800 0.000000
      CHANNELS 3 Yrotation Xrotation Zrotation
      JOINT RightShoulder
      {
       OFFSET -13.664500 0.000000 0.000000
       CHANNELS 3 Yrotation Xrotation Zrotation
       JOINT RightElbow
       {
        OFFSET 0.000000 -29.999200 0.000000
        CHANNELS 3 Yrotation Xrotation Zrotation
        JOINT RightWrist
        {
         OFFSET 0.000000 -24.253600 0.000000
         CHANNELS 3 Yrotation Xrotation Zrotation
         End Site
         {
          OFFSET 0.000000 -17.918900 0.000000
         }
        }
       }
      }
     }
     JOINT LeftCollar
     {
      OFFSET 2.920100 9.518800 0.000000
      CHANNELS 3 Yrotation Xrotation Zrotation
      JOINT LeftShoulder
      {
       OFFSET 13.664500 0.000000 0.000000
       CHANNELS 3 Yrotation Xrotation Zrotation
       JOINT LeftElbow
       {
        OFFSET 0.000000 -29.999200 0.000000
        CHANNELS 3 Yrotation Xrotation Zrotation
        JOINT LeftWrist
        {
         OFFSET 0.000000 -24.253600 0.000000
         CHANNELS 3 Yrotation Xrotation Zrotation
         End Site
         {
          OFFSET 0.000000 -17.918900 0.000000
         }
        }
       }
      }
     }
    }
   }
  }
 }
 JOINT RightHip
 {
  OFFSET -7.797300 0.005300 0.000500
  CHANNELS 3 Yrotation Xrotation Zrotation
  JOINT RightKnee
  {
   OFFSET 0.000000 -40.663400 -0.000500
   CHANNELS 3 Yrotation Xrotation Zrotation
   JOINT RightAnkle
   {
    OFFSET 0.000000 -39.523700 -0.000900
    CHANNELS 3 Yrotation Xrotation Zrotation
    JOINT RightToe
    {
     OFFSET 0.000000 -6.418000 14.485300
     CHANNELS 3 Yrotation Xrotation Zrotation
     End Site
     {
      OFFSET 0.000000 -1.465200 6.326400
     }
    }
   }
  }
 }
 JOINT LeftHip
 {
  OFFSET 7.797300 0.005300 0.000500
  CHANNELS 3 Yrotation Xrotation Zrotation
  JOINT LeftKnee
  {
   OFFSET 0.000000 -40.663400 -0.000500
   CHANNELS 3 Yrotation Xrotation Zrotation
   JOINT LeftAnkle
   {
    OFFSET 0.000000 -39.523700 -0.000900
    CHANNELS 3 Yrotation Xrotation Zrotation
    JOINT LeftToe
    {
     OFFSET 0.000000 -6.418000 14.485300
     CHANNELS 3 Yrotation Xrotation Zrotation
     End Site
     {
      OFFSET 0.000000 -1.465200 6.326400
     }
    }
   }
  }
 }
}
MOTION
Frames: 9
Frame Time: 0.008333
-14.081037 126.913296 25.972448 -166.832003 -49.719069 -3.057612 -3.143630 25.380386 -1.311611 -0.439981 4.108905 -0.124507 -0.731957 6.556806 -0.198670 -2.508681 20.964832 -0.970737 -1.720947 19.309874 -2.292542 -1.172066 -5.273420 -2.002910 1.200089 3.727783 1.502895 4.945100 -7.411039 -10.000662 -93.133568 -64.196267 143.822535 4.965881 19.035885 -12.473360 -8.223200 0.327254 -1.383268 -7.087123 -8.240009 14.191839 62.899783 -56.136211 -112.917963 3.235650 6.388127 15.167070 -5.138581 -22.870918 -6.141306 -4.727584 78.053812 -4.254291 9.939267 -12.382149 2.981464 0.001470 -0.002002 0.000651 6.061720 6.258534 1.508752 128.360149 65.373248 148.071831 6.637245 12.624687 0.150987 -0.002652 0.000916 -0.001175
-14.081280 126.913549 25.972331 -166.822025 -49.716775 -3.054922 -3.135629 25.378213 -1.324282 -0.446438 4.110701 -0.124473 -0.730357 6.557392 -0.205023 -2.505831 20.963764 -0.982701 -1.541426 19.335118 -2.160853 -1.077423 -5.262556 -1.922375 1.216897 3.714071 1.502261 4.948049 -7.401962 -10.009926 -93.204608 -64.192755 143.885621 4.969258 19.018648 -12.489924 -8.224083 0.329604 -1.360172 -7.056418 -8.257993 14.144567 62.834523 -56.171789 -112.876584 3.215041 6.366188 15.146710 -5.149787 -22.873533 -6.146966 -4.904669 78.085529 -4.431886 9.968172 -12.526438 2.977249 0.001910 -0.002008 0.000846 6.054776 6.259960 1.503321 128.361030 65.377497 148.068533 6.633158 12.604113 0.190859 -0.002060 -0.003326 -0.000913
-14.080651 126.913531 25.972404 -166.820196 -49.712759 -3.052322 -3.126355 25.378902 -1.334086 -0.454105 4.107204 -0.116741 -0.729621 6.560437 -0.216586 -2.503813 20.963505 -0.992726 -1.364545 19.344194 -2.035260 -0.984026 -5.264330 -1.848467 1.236028 3.702845 1.498795 4.955916 -7.397093 -10.019747 -93.272303 -64.187565 143.942433 5.022774 19.000055 -12.463341 -8.204770 0.325500 -1.371558 -7.063238 -8.253811 14.159662 62.910499 -56.170280 -112.933866 3.196257 6.375662 15.100609 -5.163458 -22.878934 -6.147876 -4.941532 78.108830 -4.475504 9.978138 -12.654502 2.977387 0.000460 -0.002104 0.000204 6.055332 6.264002 1.516694 128.359430 65.392129 148.062828 6.622103 12.582917 0.229502 0.000991 -0.004483 0.000439
-14.080643 126.912953 25.973090 -166.816053 -49.705341 -3.048775 -3.129939 25.376625 -1.347788 -0.453750 4.107373 -0.118936 -0.732004 6.558968 -0.220964 -2.500143 20.964023 -1.000956 -1.227821 19.338592 -1.933394 -0.861915 -5.274011 -1.770860 1.265323 3.696430 1.472246 4.947185 -7.398037 -10.005856 -93.328821 -64.178763 143.992071 5.018089 18.991631 -12.467817 -8.173631 0.318563 -1.397660 -7.080529 -8.243030 14.185845 63.056692 -56.153339 -113.035544 3.191136 6.462600 15.063355 -5.172514 -22.889263 -6.161703 -4.984763 78.137270 -4.515911 10.006012 -12.784250 2.973878 0.000840 -0.001559 0.000372 6.050749 6.259153 1.515744 128.360439 65.394434 148.060350 6.605512 12.552292 0.288070 0.004194 -0.011351 0.001858
-14.079684 126.913042 25.973070 -166.822977 -49.703890 -3.045154 -3.126974 25.377621 -1.358467 -0.457130 4.111800 -0.132118 -0.726412 6.557439 -0.210954 -2.495574 20.965775 -1.009177 -1.095789 19.324142 -1.834483 -0.744062 -5.293337 -1.695375 1.289115 3.693819 1.473464 4.951238 -7.398867 -10.016702 -93.380976 -64.170454 144.035660 4.999532 18.983693 -12.483391 -8.166036 0.314514 -1.381582 -7.046289 -8.240272 14.146086 63.031941 -56.189549 -113.035778 3.178204 6.452480 15.031437 -5.173690 -22.891850 -6.174040 -5.067313 78.166782 -4.580151 10.041890 -12.918599 2.957436 0.002993 -0.001234 0.001326 6.054439 6.257043 1.523624 128.361705 65.397308 148.058927 6.609304 12.553745 0.276066 0.002941 -0.011423 0.001303
-14.078924 126.913711 25.972523 -166.845653 -49.708365 -3.030674 -3.116718 25.384791 -1.368238 -0.455387 4.114069 -0.133473 -0.725406 6.559912 -0.213934 -2.488400 20.962530 -1.006027 -0.975448 19.308614 -1.750023 -0.629701 -5.320590 -1.622312 1.304974 3.695575 1.470819 4.974547 -7.389449 -10.053168 -93.449971 -64.139909 144.082428 5.010114 18.970610 -12.488768 -8.154446 0.315840 -1.390054 -6.995164 -8.220659 14.081821 63.058447 -56.257580 -113.077842 3.173778 6.487050 14.989890 -5.159566 -22.887526 -6.187083 -5.091229 78.189564 -4.584591 10.063746 -13.048174 2.941577 0.002541 -0.001714 0.001126 6.069597 6.258188 1.530091 128.366233 65.399781 148.066730 6.646579 12.608344 0.135741 -0.003161 0.005383 -0.001401
-14.078790 126.914380 25.971990 -166.861240 -49.713012 -3.019178 -3.110249 25.392080 -1.378827 -0.454744 4.116491 -0.133126 -0.725646 6.566190 -0.219900 -2.481730 20.956478 -1.002678 -0.859407 19.292635 -1.667657 -0.519642 -5.352666 -1.551228 1.312308 3.692845 1.477719 4.978026 -7.386010 -10.060728 -93.461189 -64.138804 144.098750 5.027391 18.955846 -12.467368 -8.140453 0.322467 -1.394640 -6.981699 -8.210969 14.061492 63.204386 -56.261194 -113.161574 3.151214 6.574656 14.906302 -5.147884 -22.882681 -6.201846 -5.076844 78.208054 -4.557273 10.086523 -13.171220 2.929112 0.001574 -0.003280 0.000697 6.077224 6.260788 1.534321 128.375224 65.402721 148.074371 6.669879 12.642103 0.046332 -0.007170 0.017547 -0.003178
-14.078312 126.914039 25.972125 -166.868541 -49.709281 -3.015836 -3.110084 25.394733 -1.388580 -0.450514 4.112161 -0.125975 -0.727660 6.579368 -0.232010 -2.482889 20.957283 -1.010898 -0.788800 19.272220 -1.610526 -0.365960 -5.393413 -1.466402 1.330862 3.690877 1.487564 4.974890 -7.393520 -10.059922 -93.471294 -64.133630 144.109063 5.023082 18.946194 -12.458397 -8.120816 0.323236 -1.384755 -6.982316 -8.211530 14.057827 63.267130 -56.264561 -113.191229 3.144629 6.615302 14.872389 -5.145708 -22.887682 -6.216047 -5.043771 78.226600 -4.514048 10.121823 -13.284425 2.914391 0.000835 -0.005274 0.000370 6.071911 6.257208 1.536886 128.388383 65.403543 148.081727 6.648498 12.617244 0.098665 -0.002382 0.011723 -0.001056
-14.077279 126.914195 25.971539 -166.868635 -49.708663 -3.022399 -3.112970 25.410041 -1.404820 -0.446417 4.108448 -0.118007 -0.725159 6.585112 -0.233079 -2.479808 20.961663 -1.017131 -0.645934 19.240750 -1.506917 -0.290495 -5.427707 -1.408140 1.342206 3.680761 1.501473 4.978891 -7.379524 -10.077987 -93.517371 -64.112345 144.149963 5.020267 18.937412 -12.455971 -8.113236 0.317300 -1.373202 -6.977683 -8.209184 14.053870 63.320967 -56.270209 -113.209747 3.132436 6.654141 14.823610 -5.152942 -22.898029 -6.228086 -5.158253 78.257479 -4.606987 10.181546 -13.354920 2.887298 0.002943 -0.001286 0.001304 6.069390 6.257233 1.540886 128.390266 65.407476 148.088155 6.618230 12.584038 0.188162 0.004276 -0.000713 0.001895
